<svg width="18" height="18" viewBox="0 0 18 18" fill="none" xmlns="http://www.w3.org/2000/svg">
<g clip-path="url(#clip0_12_531)">
<path fill-rule="evenodd" clip-rule="evenodd" d="M17.4982 9.20447C17.4982 8.56603 17.4427 7.95303 17.3405 7.36377H9.17188V10.8451H13.84C13.639 11.9702 13.0278 12.9232 12.1094 13.5616V15.8194H14.9129C16.5528 14.2526 17.4991 11.9456 17.4991 9.20447H17.4982Z" fill="#6B7280"/>
<path fill-rule="evenodd" clip-rule="evenodd" d="M9.17299 17.9998C11.5148 17.9998 13.4784 17.1935 14.9132 15.8191L12.1097 13.5613C11.3326 14.1014 10.3398 14.4202 9.17218 14.4202C6.91286 14.4202 5.00082 12.8372 4.31853 10.71H1.42188V13.0416C2.84936 15.9828 5.78197 17.9998 9.17299 17.9998Z" fill="#6B7280"/>
<path fill-rule="evenodd" clip-rule="evenodd" d="M4.32 10.7101C4.14677 10.17 4.0479 9.59348 4.0479 8.99999C4.0479 8.40649 4.14677 7.82994 4.32 7.28986V4.95825H1.42252C0.835016 6.17323 0.5 7.54761 0.5 8.99999C0.5 10.4524 0.835016 11.8267 1.42252 13.0417L4.32 10.7101Z" fill="#6B7280"/>
<path fill-rule="evenodd" clip-rule="evenodd" d="M9.17299 3.57965C10.4461 3.57965 11.59 4.0341 12.4888 4.9252L14.9769 2.34348C13.4743 0.891945 11.5107 0 9.17299 0C5.78197 0 2.84936 2.01705 1.42188 4.95827L4.31934 7.28987C5.00163 5.1626 6.91368 3.57965 9.17299 3.57965Z" fill="#6B7280"/>
</g>
<defs>
<clipPath id="clip0_12_531">
<rect width="18" height="18" fill="white"/>
</clipPath>
</defs>
</svg>
